<svg xmlns="http://www.w3.org/2000/svg" version="1.1" xmlns:xlink="http://www.w3.org/1999/xlink" xmlns:svgjs="http://svgjs.dev/svgjs" width="1920" height="1080" preserveAspectRatio="none" viewBox="0 0 1920 1080"><g mask="url(&quot;#SvgjsMask1008&quot;)" fill="none"><rect width="1920" height="1080" x="0" y="0" fill="#0e2a47"></rect><path d="M960 1345.83C1190.18 1357.8 1438.55 1344.41 1605.49 1185.49 1775.15 1023.96 1824.69 773.55 1806.46 540 1789.6 323.83 1673.56 132.61 1512.13-12.13 1360.01-148.5 1164.14-210.79 960-218.88 745.66-227.38 514.57-208.78 362.35-57.65 209.76 93.85 192.69 325.02 195.61 540 198.47 751.24 232.91 968.43 378.29 1121.71 526.94 1278.41 744.3 1334.61 960 1345.83" fill="#1c538e"></path><path d="M960 1061.42C1108.94 1069.17 1269.65 1060.5 1377.67 957.67 1487.45 853.15 1519.5 691.12 1507.71 540 1496.8 400.12 1421.71 276.4 1317.26 182.74 1218.83 94.5 1092.09 54.2 960 48.96 821.31 43.46 671.78 55.49 573.28 153.28 474.55 251.32 463.5 400.89 465.4 540 467.24 676.69 489.53 817.22 583.6 916.4 679.79 1017.8 820.43 1054.16 960 1061.42" fill="#2774c6"></path><path d="M960 777.01C1027.7 780.53 1100.75 776.59 1149.85 729.85 1199.75 682.34 1214.32 608.69 1208.96 540 1204 476.42 1169.87 420.18 1122.39 377.61 1077.65 337.5 1020.04 319.18 960 316.8 896.96 314.3 828.99 319.77 784.22 364.22 739.34 408.78 734.32 476.77 735.18 540 736.02 602.13 746.15 666.01 788.91 711.09 832.63 757.18 896.56 773.71 960 777.01" fill="#488fdb"></path></g><defs><mask id="SvgjsMask1008"><rect width="1920" height="1080" fill="#ffffff"></rect></mask></defs></svg>